<svg width="503" height="198" viewBox="0 0 503 198" fill="none" xmlns="http://www.w3.org/2000/svg">
<path d="M85.071 0.732422C83.3132 1.20117 74.5241 4.36523 65.4421 7.76367C56.36 11.2207 40.2468 17.1387 29.5827 20.9473C18.9772 24.8145 9.0749 28.6816 7.61005 29.5605C4.3874 31.5527 1.5749 35.9473 0.637396 40.5762C-0.182916 44.9121 -0.24151 85.9863 0.637396 96.2988C3.62568 132.451 20.3249 160.283 51.6726 181.201C63.6257 189.17 81.614 196.963 89.6999 197.666C94.3288 198.076 97.4929 197.373 106.868 193.975C121.341 188.643 134.231 181.084 146.243 170.654C166.575 153.193 178.352 131.338 182.512 103.213C183.801 94.6582 184.505 47.7246 183.391 41.6309C182.044 33.8379 178.821 29.9707 171.204 27.0996C161.419 23.3496 124.915 9.99023 111.907 5.36133C99.3093 0.908203 96.9655 0.205078 92.864 0.0292969C89.8171 -0.0878906 87.0632 0.146484 85.071 0.732422ZM99.9538 17.7246C104.114 19.1895 120.696 24.9902 136.809 30.6152C157.024 37.7051 166.516 41.2793 167.454 42.2168L168.86 43.5645L168.801 65.7715C168.684 96.416 167.864 104.678 163.645 117.861C159.133 132.1 152.337 143.232 141.79 153.955C130.012 165.908 114.485 175.459 97.4929 181.201C93.2155 182.666 92.6296 182.725 89.4655 182.08C84.9538 181.143 73.0593 175.986 65.2077 171.533C56.2429 166.436 49.2702 161.104 42.1804 153.896C30.2858 141.885 23.0202 129.229 18.6843 113.057C15.8132 102.334 15.3444 96.3574 15.1101 68.8184C14.9343 44.209 14.9343 43.7402 16.1647 42.5684C16.8679 41.8652 26.8874 37.9395 41.3601 32.8418C54.5436 28.1543 71.1257 22.2363 78.2155 19.7168C85.3054 17.1387 91.3991 15.0879 91.7507 15.0293C92.1608 15.0293 95.8522 16.2598 99.9538 17.7246Z" fill="#A50034"/>
<path d="M119.817 46.0253C114.251 48.6035 111.79 54.6972 113.665 61.4355C114.602 64.6582 118.235 68.9355 124.68 74.2675C131.184 79.7168 133.411 80.8886 135.52 80.1269C137.454 79.3652 146.946 71.3378 149.934 67.998C153.391 64.0136 154.797 60.7324 154.856 56.455C154.915 51.123 152.747 47.7832 148.118 45.791C143.899 44.0918 139.153 45.2636 135.696 48.8964L134.055 50.7128L132.532 48.8964C129.426 45.205 124.153 44.0332 119.817 46.0253Z" fill="#A50034"/>
<path d="M58.8795 87.334C53.9577 89.5605 51.8483 95.7715 54.4264 100.576C58.9381 109.131 70.8913 105.205 70.1295 95.4199C69.6608 89.209 63.86 85.0488 58.8795 87.334Z" fill="#A50034"/>
<path d="M118.645 87.334C109.856 91.2597 112.141 105.264 121.575 105.264C128.313 105.264 132.063 98.0566 128.84 91.4355C127.962 89.6191 126.965 88.623 125.149 87.7441C122.278 86.3379 121.106 86.2793 118.645 87.334Z" fill="#A50034"/>
<path d="M70.8328 113.408C65.3836 118.916 74.6414 128.408 87.6492 130.576C100.188 132.685 118.059 121.435 113.43 114.346C112.259 112.529 109.915 111.533 108.157 112.06C107.513 112.236 105.989 113.291 104.876 114.404C98.0789 120.85 86.0672 121.26 79.4461 115.225C74.993 111.182 73.4109 110.889 70.8328 113.408Z" fill="#A50034"/>
<path d="M328.645 66.5918C323.548 67.0605 318.567 69.4628 316.634 72.3925C315.169 74.6191 313.821 80.6543 314.173 83.5253C314.348 84.9902 314.231 85.0488 310.364 85.3418C307.727 85.5175 306.204 85.9277 305.852 86.5136C304.973 87.8613 305.149 94.4824 306.028 95.1855C306.438 95.5371 308.43 95.8886 310.423 96.0058L314.055 96.1816L314.231 112.764L314.348 129.404L315.813 130.576C316.985 131.514 317.923 131.689 320.618 131.514C326.067 131.103 325.774 132.158 325.774 112.822V95.8886H330.93C334.153 95.8886 336.321 95.6543 336.79 95.1855C337.2 94.7753 337.493 92.9003 337.493 90.8496C337.493 85.8105 336.907 85.3418 330.696 85.3418H325.774V83.4082C325.774 79.1894 328.528 76.8457 334.27 76.2011C336.204 75.9668 338.137 75.5566 338.548 75.205C338.899 74.9121 339.251 73.3886 339.251 71.8652C339.251 66.9433 337.024 65.83 328.645 66.5918Z" fill="#A50034"/>
<path d="M417.884 66.6504C401.302 69.1113 390.227 82.4707 390.227 99.9902C390.227 109.307 393.098 116.865 398.841 122.959C403.059 127.353 406.751 129.639 412.376 131.455C423.977 135.146 437.161 132.1 445.54 123.721C452.102 117.1 454.915 109.951 454.915 99.6972C454.915 92.6074 454.036 88.6816 451.165 82.9394C445.364 71.5136 431.36 64.6582 417.884 66.6504ZM431.653 80.1269C435.696 82.0605 438.626 85.166 440.735 89.7949C441.907 92.2558 442.083 93.6035 442.083 99.6972C442.083 106.201 441.966 106.963 440.501 110.01C436.458 118.213 427.083 123.018 418.762 121.143C404.7 118.037 398.137 101.045 405.813 87.8027C411.204 78.5449 421.868 75.3808 431.653 80.1269Z" fill="#A50034"/>
<path d="M222.942 67.4121C216.907 69.3457 212.219 73.0957 210.169 77.666C208.528 81.4746 208.176 86.8066 209.466 90.8496C211.575 97.4707 216.204 100.752 228.45 104.385C237.005 106.846 238.411 107.549 240.462 109.951C242.278 112.178 242.454 114.756 240.813 117.393C238.997 120.381 236.594 121.377 230.852 121.377C225.11 121.377 221.653 120.322 217.61 117.158C214.446 114.756 213.684 114.932 210.403 118.447C207.415 121.728 207.298 123.311 210.051 125.654C215.383 130.342 222.415 132.803 230.559 132.803C239.934 132.803 247.141 129.639 251.184 123.779C253.528 120.322 254.29 117.744 254.29 112.881C254.29 108.018 252.532 104.15 248.899 100.752C245.266 97.4707 242.864 96.3574 233.841 93.6035C223.118 90.3808 220.891 88.8574 220.891 84.7558C220.891 80.1269 224.524 77.4902 230.676 77.6074C234.719 77.666 238.118 78.8964 241.633 81.7089C243.333 83.1738 244.094 83.4082 244.915 82.998C246.965 81.8847 251.36 77.0214 251.36 75.9082C251.36 73.4472 244.798 69.0527 238.762 67.4706C234.602 66.416 226.223 66.3574 222.942 67.4121Z" fill="#A50034"/>
<path d="M358.059 84.7558C348.977 86.6308 341.829 94.541 340.481 104.209C338.841 116.045 344.173 126.533 354.251 131.162C356.653 132.275 358.118 132.51 363.274 132.51C368.958 132.51 369.72 132.393 373.235 130.693C381.321 126.826 383.782 122.021 379.036 119.619C376.751 118.389 375.813 118.506 371.184 120.498C366.087 122.666 362.22 122.783 358.587 120.908C355.716 119.502 353.02 116.396 352.434 113.936L352.024 112.295L367.434 112.178L382.903 112.002L383.43 108.076C384.427 100.811 381.321 92.7832 375.989 88.8574C371.243 85.4004 363.626 83.6426 358.059 84.7558ZM367.786 95.6543C370.012 97.2949 371.419 99.4043 371.829 101.572L372.239 103.506H362.454C351.848 103.506 352.083 103.564 353.372 100.166C354.192 97.998 356.126 95.9473 358.294 94.9512C360.696 93.7793 365.852 94.1894 367.786 95.6543Z" fill="#A50034"/>
<path d="M480.286 84.7558C477.122 85.5762 473.665 87.4512 472.61 88.9746L471.673 90.2637V88.7988C471.673 86.3965 469.973 85.3418 466.223 85.3418C460.95 85.3418 461.126 84.4629 461.126 108.486C461.126 125.361 461.301 129.287 461.946 130.225C462.649 131.104 463.528 131.338 466.575 131.338C472.903 131.338 472.727 131.748 472.962 115.283L473.137 101.338L474.719 98.9941C478.411 93.3691 486.907 94.3652 489.602 100.693C490.481 102.803 490.716 105.439 491.008 116.689L491.301 130.107L492.766 130.869C493.587 131.279 495.52 131.631 497.044 131.631C499.27 131.631 500.149 131.338 501.262 130.166L502.727 128.76V115.928C502.727 102.393 502.258 98.3496 500.383 94.3652C496.868 87.1582 487.844 82.8808 480.286 84.7558Z" fill="#A50034"/>
<path d="M272.747 85.5761C266.77 87.4511 262.903 90.7324 262.141 94.4824C261.731 96.7089 263.313 98.2324 266.594 98.6425C268.469 98.9355 269.231 98.7011 270.286 97.8222C275.149 93.3691 282.708 93.1347 286.926 97.3535C288.391 98.8183 288.86 99.8144 288.86 101.396V103.506H282.59C270.344 103.506 264.837 105.615 261.907 111.416C258.86 117.51 260.735 125.947 265.95 129.521C269.934 132.275 272.337 132.978 277.434 132.686C282.59 132.393 285.93 131.045 288.567 128.291C289.973 126.709 290.032 126.709 290.032 127.939C290.032 128.643 290.735 129.756 291.672 130.459C292.903 131.514 293.782 131.689 296.008 131.455C300.872 131.045 300.696 131.748 300.462 113.818L300.286 97.9394L298.645 94.5996C295.305 87.8613 289.563 84.7558 280.481 84.8144C277.493 84.8144 274.036 85.166 272.747 85.5761ZM288.977 114.287C288.626 118.74 286.575 121.025 281.712 122.314C278.372 123.193 275.325 122.607 273.391 120.674C270.637 117.92 271.751 113.467 275.559 112.353C276.614 112.061 280.071 111.826 283.294 111.885L289.153 112.002L288.977 114.287Z" fill="#A50034"/>
</svg>
